<svg version="1.1" xmlns="http://www.w3.org/2000/svg" width="343" height="596">
<path d="M0 0 C27.72068882 -0.02376641 55.44137604 -0.04118698 83.16207314 -0.05181217 C96.044413 -0.05688516 108.9267463 -0.06379067 121.80908203 -0.07543945 C153.58339336 -0.10328911 185.35736608 -0.09269165 217.13160706 -0.01566315 C221.67554094 -0.00481822 226.21947055 0.00388165 230.76341248 0.01053619 C242.27945232 0.02788257 253.79509668 0.05908901 265.31089866 0.1381219 C269.99549143 0.17023073 274.67978123 0.19509575 279.36449051 0.19883537 C283.63805971 0.20270028 287.91082196 0.22983451 292.18413973 0.27583003 C293.72219135 0.28849292 295.26033852 0.29288838 296.79843473 0.28807378 C311.95705359 0.25043789 311.95705359 0.25043789 318 6 C322.13202794 11.29747172 323.12511399 15.00964863 323.12304783 21.6317091 C323.12420167 22.31220848 323.12535552 22.99270786 323.12654433 23.69382843 C323.12920649 25.99066792 323.1246921 28.28743833 323.12025452 30.58427429 C323.1206903 32.24090857 323.12156534 33.89754278 323.12284368 35.55417663 C323.12508724 40.11943843 323.12106923 44.68467692 323.11606562 49.24993575 C323.11175933 54.16812937 323.11320767 59.08632162 323.1139679 64.0045166 C323.11449302 72.52993266 323.11134744 81.05534109 323.10573006 89.58075523 C323.09761346 101.90717272 323.09499967 114.23358649 323.09374207 126.56000636 C323.0915518 146.55734032 323.08489239 166.55467021 323.07543945 186.55200195 C323.06626469 205.9810382 323.05918417 225.41007335 323.05493164 244.83911133 C323.05453756 246.63460691 323.05453756 246.63460691 323.05413551 248.46637513 C323.0528305 254.4711758 323.05156679 260.47597647 323.05032361 266.48077714 C323.03995178 316.32052091 323.02233414 366.16026026 323 416 C321.96178101 416.38853149 321.96178101 416.38853149 320.90258789 416.78491211 C319.99758545 417.13303955 319.09258301 417.48116699 318.16015625 417.83984375 C317.26176025 418.18136475 316.36336426 418.52288574 315.43774414 418.87475586 C312.29164528 420.32697115 310.74981608 422.03292056 309 425 C307.46203292 429.61390124 307.07770596 434.38349192 308.71875 439.0390625 C312.06402421 445.3788967 316.53026882 446.88798032 323 449 C323.09274792 461.39588605 323.1637896 473.79168932 323.20724869 486.18785191 C323.22810864 491.94412571 323.2563977 497.70016182 323.30175781 503.45629883 C323.3452716 509.01301848 323.36914909 514.56950974 323.37950897 520.12638664 C323.38689035 522.24465466 323.40130448 524.36291042 323.42292023 526.48108101 C323.45202727 529.45193458 323.45595288 532.42184866 323.45410156 535.39282227 C323.46848267 536.26532623 323.48286377 537.1378302 323.49768066 538.03677368 C323.45388389 544.54721202 321.92702933 548.80222045 317.4375 553.70703125 C311.6569923 558.15236733 308.10250051 559.29534967 300.81396484 559.24291992 C299.97390994 559.24478428 299.13385504 559.24664864 298.26834393 559.24856949 C295.41578835 559.25224424 292.56347242 559.24130979 289.7109375 559.23046875 C287.62503572 559.22977709 285.53913354 559.22988873 283.45323181 559.23072815 C277.65455884 559.22997546 271.85599006 559.2156324 266.05734634 559.19804382 C262.37672282 559.18750493 258.69610491 559.17985905 255.01547241 559.17321777 C240.44192395 559.14666765 225.86848587 559.10437903 211.29500353 559.05397916 C197.9400119 559.00825141 184.58502884 558.98043542 171.22998047 558.95751953 C153.00470768 558.92597524 134.77954813 558.87737468 116.55436707 558.81127834 C106.4133373 558.7747928 96.2723736 558.7444772 86.13128662 558.72982788 C77.38364834 558.71703241 68.63618756 558.69013714 59.88865072 558.64568788 C55.36188729 558.62309093 50.83534049 558.60705062 46.30851555 558.60806465 C42.11997522 558.60880531 37.93192712 558.591018 33.7435143 558.55882037 C32.22168828 558.55034563 30.699807 558.54857303 29.17796779 558.55420053 C12.75841662 558.60687469 12.75841662 558.60687469 6.16015625 552.21875 C5.79792969 551.6515625 5.43570312 551.084375 5.0625 550.5 C4.68222656 549.9328125 4.30195312 549.365625 3.91015625 548.78125 C2.27281473 545.57683913 1.87497753 542.51680821 1.87974548 538.95037842 C1.87837082 538.15394928 1.87699615 537.35752014 1.87557983 536.53695679 C1.87917511 535.67236847 1.88277039 534.80778015 1.88647461 533.91699219 C1.88632858 532.99957245 1.88618256 532.08215271 1.8860321 531.13693237 C1.88672834 528.10688913 1.89450725 525.07690749 1.90234375 522.046875 C1.90420896 519.94508905 1.90563238 517.84330266 1.90663147 515.74151611 C1.91044856 510.21116942 1.92027199 504.68084901 1.93133545 499.1505127 C1.94156691 493.50659541 1.94613281 487.86267388 1.95117188 482.21875 C1.96189495 471.14582179 1.97896171 460.07291308 2 449 C2.61560791 448.8138916 3.23121582 448.6277832 3.86547852 448.43603516 C5.07868774 448.05390869 5.07868774 448.05390869 6.31640625 447.6640625 C7.51825562 447.2920874 7.51825562 447.2920874 8.74438477 446.91259766 C12.42732402 445.42252006 13.95607843 443.34459894 16 440 C17.83342897 435.43755003 18.50415019 431.4952357 17 426.75 C15.17008425 422.72097497 12.72121937 420.43310497 9 418 C6.67944664 417.29012608 4.34687499 416.61730598 2 416 C1.99576806 414.97201892 1.99153612 413.94403784 1.98717594 412.88490582 C1.88408722 387.89829418 1.77535236 362.91171201 1.66066074 337.92515087 C1.60532867 325.84195621 1.55184669 313.75875859 1.50268555 301.67553711 C1.45984353 291.14662514 1.41356548 280.61773491 1.36312145 270.08885652 C1.33652068 264.51136953 1.31166757 258.93388685 1.29092598 253.35637474 C1.27136444 248.11076097 1.24722206 242.86518858 1.21950912 237.61961174 C1.21013614 235.6906484 1.20246175 233.76167597 1.19658089 231.83269882 C1.18832394 229.20626591 1.17404836 226.57993354 1.15821838 223.95353699 C1.15724028 223.18408585 1.15626217 222.41463472 1.15525442 221.62186688 C1.13077826 218.48031833 1.00110014 216.00330043 0 213 C-0.09402734 210.17596383 -0.13028569 207.37694418 -0.12025452 204.55293274 C-0.12110894 203.68057281 -0.12196337 202.80821288 -0.12284368 201.90941781 C-0.1244958 198.97515438 -0.11898146 196.04094765 -0.11352539 193.10668945 C-0.11324344 191.00775148 -0.11340142 188.90881341 -0.1139679 186.80987549 C-0.11425554 181.10154891 -0.10836405 175.39324322 -0.10139394 169.6849215 C-0.095155 163.72315085 -0.09455617 157.76137974 -0.09336853 151.79960632 C-0.09025681 140.50554963 -0.08204556 129.21150257 -0.07201904 117.91745013 C-0.06085296 105.06152003 -0.0553462 92.20558948 -0.05032361 79.34965575 C-0.03986283 52.89976514 -0.02226646 26.44988311 0 0 Z " fill="#FEFEFE" transform="translate(0,0)"/>
<path d="M0 0 C0.33 0.66 0.66 1.32 1 2 C0.34 1.67 -0.32 1.34 -1 1 C-0.67 0.67 -0.34 0.34 0 0 Z " fill="#C6CCFF" transform="translate(325,175)"/>
<path d="" fill="#F8DFFF" transform="translate(0,0)"/>
<path d="" fill="#F9DEFF" transform="translate(0,0)"/>
<path d="" fill="#F9DEFF" transform="translate(0,0)"/>
<path d="" fill="#F8DEFF" transform="translate(0,0)"/>
<path d="" fill="#C6CCFF" transform="translate(0,0)"/>
<path d="" fill="#F8DFFF" transform="translate(0,0)"/>
<path d="" fill="#F8DFFF" transform="translate(0,0)"/>
<path d="" fill="#F8DFFF" transform="translate(0,0)"/>
<path d="" fill="#F8DFFF" transform="translate(0,0)"/>
<path d="" fill="#F8DFFF" transform="translate(0,0)"/>
</svg>